<svg width="128" height="124" viewBox="0 0 128 124" xmlns="http://www.w3.org/2000/svg" xmlns:xlink="http://www.w3.org/1999/xlink"><defs><path id="a" d="M.01.007h127.988V124H.01z"/></defs><g fill="none" fill-rule="evenodd"><g><mask id="b" fill="#fff"><use xlink:href="#a"/></mask><path d="M117.89 59.501s5.958-10 3.022-22.737c-3.245-14.072-4.908-18.61-2.491-29.345 0 0-19.886 2.97-27.48 23.791l-2.715-1.894s-1.499-7.627 4.694-15.105c0 0-5.639-1.317-10.222.055 0 0-7.778-17.925-36.658-13.584 0 0 4.227 6.43 5.635 13.185 0 0-6.873-4.51-18.326-1.598 0 0 7.37 7.928 7.306 16.667l-3.43 1.923.112.385-.28-.034C29.464 10.39 9.578 7.42 9.578 7.42c2.417 10.734.754 15.273-2.49 29.345C4.15 49.5 10.108 59.5 10.108 59.5 3.47 64.574 0 70.741 0 70.741 26.27 116.059 64 124 64 124s37.729-7.94 63.998-53.259c0 0-3.47-6.167-10.108-11.24" fill="#FFFFFE" mask="url(#b)"/></g><path d="M64 118.073s-29.532-9.88-50.774-48.239c0 0 5.143-13.38 22.606-16.648 0 0-9.446-.4-17.255 3.973 0 0-3.642-4.222-3.639-10.736.003-6.657 3.764-21.582 3.825-25.306 0 0 10.913 5.38 13.813 17.77 0 0-4.92 5.216-6.083 7.849l.724-4.668s-1.925-3.739-5.923-5.708c0 0-2.744 9.83.243 15.433 0 0 3.616-1.575 7.37-1.547 0 0 5.65-9.689 18.312-17.145l.113-.035c.503-2.218 1.605-8.41-.61-12.581 0 0 7.746 1.566 11.302 7.596.332-.99 3.359-8.417 1.447-17.691C78.847 12.927 80.78 33.1 80.78 33.1 93.441 40.557 99.09 50.246 99.09 50.246c3.755-.028 7.371 1.547 7.371 1.547 2.988-5.604.243-15.433.243-15.433-3.998 1.97-5.923 5.708-5.923 5.708l.724 4.668c-1.163-2.633-6.083-7.848-6.083-7.848 2.9-12.391 13.813-17.77 13.813-17.77.061 3.723 3.822 18.648 3.825 25.305.003 6.514-3.638 10.736-3.638 10.736-7.81-4.374-17.256-3.973-17.256-3.973 17.463 3.269 22.606 16.648 22.606 16.648-21.241 38.359-50.773 48.239-50.773 48.239zm49.6-58.241s4.685-4.828 4.46-14.615c-.226-9.788-4.963-22.69-4.068-31.988 0 0-17.754 6.057-21.319 23.243 0 0-3.481-2.884-7.574-4.946 0 0-1.862-8.43 2.178-14.695 0 0-3.704.035-6.092 1.643 0 0-5.717-15.183-29.061-14.058 0 0 3.107 4.137 2.838 14.894 0 0-4.363-3.852-14.59-3.706 0 0 4.528 6.79 3.8 15.285 0 0-5.69 2.767-8.847 5.583-3.565-17.186-21.319-23.243-21.319-23.243.895 9.298-3.841 22.2-4.067 31.988-.226 9.787 4.459 14.615 4.459 14.615C7.62 64.715 5.493 70.4 5.493 70.4c24.991 41.941 58.506 50.91 58.506 50.91s33.515-8.969 58.506-50.91c0 0-2.127-5.685-8.904-10.568z" fill="#003DA5"/><path d="M64 91.96c-4.577-.769-11.241-4.765-11.241-4.765 4.93 5.96 11.24 8.21 11.24 8.21s6.31-2.25 11.24-8.21c0 0-6.664 3.996-11.24 4.765M40.584 49.996s3.564-.995 8.408 1.013c5.435 2.251 9.392-.355 10.03-3.784 0 0-3.01 1.39-5.671-.851-3.232-2.721-6.706-4.233-11.149-3.125-4.482 1.119-6.61 5.64-6.61 5.64s3.958-2.957 7.98-2.73c3.146.177 7.653 2.814 7.653 2.814s-6.483-2.871-10.641 1.023M64 54.072c-4.841 1.931-7.623 5.194-7.623 5.194-4.6.214-9.667-.162-9.667-.162 2.607-1.156 8.216-2.493 8.216-2.493 3.658-4.72 9.073-6.433 9.073-6.433s5.415 1.713 9.073 6.433c0 0 5.61 1.337 8.216 2.493 0 0-5.068.376-9.667.162 0 0-2.782-3.263-7.622-5.194" fill="#003DA5"/><path d="M100.04 60.668c-5.555-2.322-12.544-1.615-12.544-1.615s6.392 1.439 9.601 3.184c0 0-9.395 11.542-33.098 18.21-23.703-6.668-33.098-18.21-33.098-18.21 3.21-1.745 9.601-3.184 9.601-3.184s-6.988-.707-12.545 1.615c-2.91 5.276-2.968 12.306-2.968 12.306s2.124-6.203 4.207-9.206c0 0 10.799 15.021 34.803 22.477 24.005-7.456 34.803-22.477 34.803-22.477 2.083 3.003 4.207 9.206 4.207 9.206s-.057-7.03-2.968-12.306M64 91.96c-4.577-.769-11.241-4.765-11.241-4.765 4.93 5.96 11.24 8.21 11.24 8.21s6.31-2.25 11.24-8.21c0 0-6.664 3.996-11.24 4.765M80.501 48.223c-.109.985-1.01 1.504-1.855 1.363-.902-.15-1.163-.97-1.163-.97s1.675-.853 2.76-1.325c0 0 .321.362.258.932zm3.925-2.064c3.894-.359 7.98 2.73 7.98 2.73s-2.128-4.521-6.61-5.64c-4.443-1.108-7.917.404-11.148 3.125-2.662 2.24-5.673.85-5.673.85 2.407 4.842 6.875 2.19 7.09 2.088.903 2.052 2.541 2.462 2.541 2.462-1.123.744-1.487 1.482-1.487 1.482 5.424-1.34 11.634-.58 11.634-.58-2.292-1.667-5.386-1.828-5.386-1.828 2.103-2.398 1.059-4.69 1.059-4.69z" fill="#003DA5"/><path d="M83.367 50.848s3.094.16 5.386 1.829c0 0-6.21-.762-11.634.579 0 0 .364-.738 1.487-1.482 0 0-1.638-.41-2.54-2.462-.216.102-4.684 2.754-7.09-2.087 0 0 3.01 1.39 5.672-.851 3.231-2.721 6.705-4.233 11.148-3.125 4.482 1.119 6.61 5.64 6.61 5.64s-4.086-3.089-7.98-2.73c0 0 1.044 2.29-1.059 4.689zm8.8 2.338s9.445-.4 17.255 3.973c0 0 3.64-4.222 3.638-10.736-.003-6.657-3.764-21.582-3.825-25.306 0 0-10.913 5.38-13.813 17.77 0 0 4.92 5.216 6.083 7.849l-.724-4.668s1.925-3.739 5.923-5.708c0 0 2.745 9.83-.243 15.433 0 0-3.616-1.575-7.37-1.547 0 0-5.65-9.689-18.312-17.145 0 0-1.932-20.174-21.308-22.711 0 0 4.528 3.795 4.528 17.567v22.221s5.415 1.713 9.073 6.433c0 0 5.61 1.337 8.216 2.493 0 0-1.306.096-3.192.164l-14.097 4.575v13.344s12.135-1.59 32.41-15.297c-3.354-1.585-8.913-2.837-8.913-2.837s6.989-.707 12.545 1.615c2.91 5.276 2.968 12.306 2.968 12.306s-2.124-6.203-4.207-9.206c0 0-10.798 15.021-34.803 22.477v5.715c4.576-.769 11.24-4.765 11.24-4.765-4.93 5.96-11.24 8.21-11.24 8.21s-6.31-2.25-11.24-8.21c0 0 3.808 6.51 11.24 11.182v19.696s29.532-9.88 50.773-48.239c0 0-5.143-13.38-22.606-16.648z" fill="#C4C2BD"/></g></svg>